<?xml version="1.0" encoding="UTF-8"?><svg id="Camada_2" xmlns="http://www.w3.org/2000/svg" viewBox="0 0 45.55 47"><defs><style>.cls-1{fill:#2c469e;}</style></defs><g id="Camada_1-2"><g><path class="cls-1" d="M31.82,47c-.94-.2-1.94-.24-2.8-.62-4.08-1.78-8.09-1.56-12.2-.03-2.91,1.09-5.74,.68-8.24-1.28-2.3-1.8-3.21-4.93-1.97-7.57,.77-1.64,1.79-3.24,3-4.57,2.18-2.38,3.89-4.96,4.81-8.06,.17-.58,.42-1.15,.7-1.69,1.92-3.76,4.67-5.35,8.8-5,3.88,.34,6.33,2.69,7.36,6.2,1.02,3.51,2.9,6.29,5.24,9,1.38,1.6,2.66,3.67,3,5.69,.78,4.73-2.46,7.77-7.7,7.92Z"/><path class="cls-1" d="M8.76,7.65c.68-1.77,1.09-3.7,2.09-5.26,1.85-2.89,5.35-3.14,7.93-.86,3.41,3.03,4.1,9.35,1.42,13.03-1.96,2.69-5.33,3.07-7.88,.9-2.02-1.72-3.15-4.47-3.15-7.65l-.41-.16Z"/><path class="cls-1" d="M36.97,7.89c-.36,2.76-1.13,5.13-2.97,7.07-2.73,2.89-6.69,2.46-8.76-.94-2.23-3.67-1.5-9.32,1.59-12.28,2.77-2.66,6.68-2.2,8.49,1.18,.81,1.52,1.11,3.31,1.65,4.98Z"/><path class="cls-1" d="M0,21.2c.44-1.44,.68-2.98,1.37-4.29,1.62-3.03,5.03-3.51,7.62-1.25,2.99,2.61,3.86,7.91,1.86,11.36-1.88,3.24-5.82,3.53-8.31,.59-1.54-1.82-2.29-3.94-2.54-6.42Z"/><path class="cls-1" d="M45.55,21.13c-.03,2.82-.91,5.35-3.17,7.25-2.51,2.11-5.73,1.53-7.43-1.3-2.04-3.4-1.11-8.95,1.96-11.45,1.46-1.18,3.08-1.8,4.96-1.06,2.18,.86,3.07,2.7,3.53,4.82,.12,.54,.09,1.12,.14,1.74Z"/></g></g></svg>